<?xml version="1.0" encoding="us-ascii" standalone="no"?><svg xmlns="http://www.w3.org/2000/svg" xmlns:xlink="http://www.w3.org/1999/xlink" contentStyleType="text/css" height="236px" preserveAspectRatio="none" style="width:382px;height:236px;background:#FFFFFF;" version="1.1" viewBox="0 0 382 236" width="382px" zoomAndPan="magnify"><defs/><g><rect fill="#FFFFFF" height="220.8906" style="stroke:#181818;stroke-width:1.5;" width="371" x="5" y="10"/><path d="M170,10 L170,19.2969 L160,29.2969 L5,29.2969 " fill="none" style="stroke:#181818;stroke-width:1.5;"/><text fill="#000000" font-family="sans-serif" font-size="14" lengthAdjust="spacing" textLength="155" x="8" y="23.9951">Dependency Diagram</text><!--entity find--><g id="elem_find"><rect fill="#F1F1F1" height="46.2969" rx="2.5" ry="2.5" style="stroke:#181818;stroke-width:0.5;" width="138" x="18" y="167.2969"/><rect fill="#F1F1F1" height="10" style="stroke:#181818;stroke-width:0.5;" width="15" x="136" y="172.2969"/><rect fill="#F1F1F1" height="2" style="stroke:#181818;stroke-width:0.5;" width="4" x="134" y="174.2969"/><rect fill="#F1F1F1" height="2" style="stroke:#181818;stroke-width:0.5;" width="4" x="134" y="178.2969"/><text fill="#000000" font-family="sans-serif" font-size="14" lengthAdjust="spacing" textLength="98" x="33" y="200.292">Object Finder</text></g><!--entity app--><g id="elem_app"><rect fill="#F1F1F1" height="46.2969" rx="2.5" ry="2.5" style="stroke:#181818;stroke-width:0.5;" width="123" x="121.5" y="44.2969"/><rect fill="#F1F1F1" height="10" style="stroke:#181818;stroke-width:0.5;" width="15" x="224.5" y="49.2969"/><rect fill="#F1F1F1" height="2" style="stroke:#181818;stroke-width:0.5;" width="4" x="222.5" y="51.2969"/><rect fill="#F1F1F1" height="2" style="stroke:#181818;stroke-width:0.5;" width="4" x="222.5" y="55.2969"/><text fill="#000000" font-family="sans-serif" font-size="14" lengthAdjust="spacing" textLength="83" x="136.5" y="77.292">Application</text></g><!--entity emo--><g id="elem_emo"><rect fill="#F1F1F1" height="46.2969" rx="2.5" ry="2.5" style="stroke:#181818;stroke-width:0.5;" width="176" x="191" y="167.2969"/><rect fill="#F1F1F1" height="10" style="stroke:#181818;stroke-width:0.5;" width="15" x="347" y="172.2969"/><rect fill="#F1F1F1" height="2" style="stroke:#181818;stroke-width:0.5;" width="4" x="345" y="174.2969"/><rect fill="#F1F1F1" height="2" style="stroke:#181818;stroke-width:0.5;" width="4" x="345" y="178.2969"/><text fill="#000000" font-family="sans-serif" font-size="14" lengthAdjust="spacing" textLength="136" x="206" y="200.292">Emotion Presenter</text></g><!--link app to find--><g id="link_app_find"><path d="M165.392,90.4899 C148.071,112.3229 125.5082,140.7604 108.2255,162.5439 " fill="none" id="app-to-find" style="stroke:#181818;stroke-width:1.0;"/><polygon fill="#181818" points="104.4963,167.2443,113.2236,162.6799,107.604,163.3273,106.9565,157.7076,104.4963,167.2443" style="stroke:#181818;stroke-width:1.0;"/><text fill="#000000" font-family="sans-serif" font-size="13" lengthAdjust="spacing" textLength="23" x="142" y="133.3638">use</text></g><!--link app to emo--><g id="link_app_emo"><path d="M200.608,90.4899 C217.929,112.3229 240.4918,140.7605 257.7748,162.544 " fill="none" id="app-to-emo" style="stroke:#181818;stroke-width:1.0;"/><polygon fill="#181818" points="261.504,167.2443,259.0437,157.7077,258.3963,163.3273,252.7766,162.68,261.504,167.2443" style="stroke:#181818;stroke-width:1.0;"/><text fill="#000000" font-family="sans-serif" font-size="13" lengthAdjust="spacing" textLength="23" x="237" y="133.3638">use</text></g><!--SRC=[FSin3W8n34JHtgUO2-m5A92G5bhe8meJlCY8E5OI2cwFMH3Tw7rDORMbSH7Cuc9NiVp2h7mB8qh7ortom46Zj3EuOub9QUV-qCn3gwtAxfJsfNu0foPTRFmEKYfHT4pJTdrZWsUNFqN_oXi0]--></g></svg>