<?xml version="1.0" encoding="us-ascii" standalone="no"?><svg xmlns="http://www.w3.org/2000/svg" xmlns:xlink="http://www.w3.org/1999/xlink" contentStyleType="text/css" height="331px" preserveAspectRatio="none" style="width:456px;height:331px;background:#FFFFFF;" version="1.1" viewBox="0 0 456 331" width="456px" zoomAndPan="magnify"><defs/><g><rect fill="#FFFFFF" height="315.8906" style="stroke:#181818;stroke-width:1.5;" width="445" x="5" y="10"/><path d="M105,10 L105,19.2969 L95,29.2969 L5,29.2969 " fill="none" style="stroke:#181818;stroke-width:1.5;"/><text fill="#000000" font-family="sans-serif" font-size="14" lengthAdjust="spacing" textLength="90" x="8" y="23.9951">Deployment</text><!--cluster pc--><g id="cluster_pc"><polygon fill="none" points="53,117.2969,63,107.2969,430,107.2969,430,223.2969,420,233.2969,53,233.2969,53,117.2969" style="stroke:#181818;stroke-width:1.0;"/><line style="stroke:#181818;stroke-width:1.0;" x1="420" x2="430" y1="117.2969" y2="107.2969"/><line style="stroke:#181818;stroke-width:1.0;" x1="53" x2="420" y1="117.2969" y2="117.2969"/><line style="stroke:#181818;stroke-width:1.0;" x1="420" x2="420" y1="117.2969" y2="233.2969"/><text fill="#000000" font-family="sans-serif" font-size="14" font-weight="bold" lengthAdjust="spacing" textLength="115" x="180" y="133.292">Linux Machine</text></g><!--entity g_dir--><g id="elem_g_dir"><path d="M98.5,155.2969 L139.5,155.2969 A3.75,3.75 0 0 1 142,157.7969 L149,176.2969 L163.5,176.2969 A2.5,2.5 0 0 1 166,178.7969 L166,207.0938 A2.5,2.5 0 0 1 163.5,209.5938 L98.5,209.5938 A2.5,2.5 0 0 1 96,207.0938 L96,157.7969 A2.5,2.5 0 0 1 98.5,155.2969 " fill="#F1F1F1" style="stroke:#181818;stroke-width:0.5;"/><line style="stroke:#181818;stroke-width:0.5;" x1="96" x2="149" y1="176.2969" y2="176.2969"/><text fill="#000000" font-family="sans-serif" font-size="14" lengthAdjust="spacing" textLength="36" x="106" y="196.292">good</text></g><!--entity b_dir--><g id="elem_b_dir"><path d="M203.5,155.2969 L244.5,155.2969 A3.75,3.75 0 0 1 247,157.7969 L254,176.2969 L268.5,176.2969 A2.5,2.5 0 0 1 271,178.7969 L271,207.0938 A2.5,2.5 0 0 1 268.5,209.5938 L203.5,209.5938 A2.5,2.5 0 0 1 201,207.0938 L201,157.7969 A2.5,2.5 0 0 1 203.5,155.2969 " fill="#F1F1F1" style="stroke:#181818;stroke-width:0.5;"/><line style="stroke:#181818;stroke-width:0.5;" x1="201" x2="254" y1="176.2969" y2="176.2969"/><text fill="#000000" font-family="sans-serif" font-size="14" lengthAdjust="spacing" textLength="27" x="211" y="196.292">bad</text></g><!--entity c_dir--><g id="elem_c_dir"><path d="M309,155.2969 L350,155.2969 A3.75,3.75 0 0 1 352.5,157.7969 L359.5,176.2969 L403,176.2969 A2.5,2.5 0 0 1 405.5,178.7969 L405.5,207.0938 A2.5,2.5 0 0 1 403,209.5938 L309,209.5938 A2.5,2.5 0 0 1 306.5,207.0938 L306.5,157.7969 A2.5,2.5 0 0 1 309,155.2969 " fill="#F1F1F1" style="stroke:#181818;stroke-width:0.5;"/><line style="stroke:#181818;stroke-width:0.5;" x1="306.5" x2="359.5" y1="176.2969" y2="176.2969"/><text fill="#000000" font-family="sans-serif" font-size="14" lengthAdjust="spacing" textLength="69" x="316.5" y="196.292">confusing</text></g><!--entity v--><g id="elem_v"><rect fill="#F1F1F1" height="39.2969" rx="2.5" ry="2.5" style="stroke:#181818;stroke-width:0.5;" width="86" x="18" y="44.2969"/><polygon fill="#F1F1F1" points="87,49.2969,87,63.2969,99,63.2969,99,55.2969,93,49.2969,87,49.2969" style="stroke:#181818;stroke-width:0.5;"/><line style="stroke:#181818;stroke-width:0.5;" x1="93" x2="93" y1="49.2969" y2="55.2969"/><line style="stroke:#181818;stroke-width:0.5;" x1="99" x2="93" y1="55.2969" y2="55.2969"/><text fill="#000000" font-family="sans-serif" font-size="14" lengthAdjust="spacing" textLength="56" x="28" y="70.292">visioner</text></g><!--entity imgs--><g id="elem_imgs"><rect fill="#F1F1F1" height="39.2969" rx="2.5" ry="2.5" style="stroke:#181818;stroke-width:0.5;" width="134" x="169" y="269.2969"/><polygon fill="#F1F1F1" points="286,274.2969,286,288.2969,298,288.2969,298,280.2969,292,274.2969,286,274.2969" style="stroke:#181818;stroke-width:0.5;"/><line style="stroke:#181818;stroke-width:0.5;" x1="292" x2="292" y1="274.2969" y2="280.2969"/><line style="stroke:#181818;stroke-width:0.5;" x1="298" x2="292" y1="280.2969" y2="280.2969"/><text fill="#000000" font-family="sans-serif" font-size="14" lengthAdjust="spacing" textLength="104" x="179" y="295.292">Object Images</text></g><!--reverse link g_dir to imgs--><g id="link_g_dir_imgs"><path d="M153.0752,214.1458 C162.6712,226.8507 171.394,237.1764 184,249.2969 C191.368,256.3816 200.069,263.2943 208.224,269.2621 " fill="none" id="g_dir-backto-imgs" style="stroke:#181818;stroke-width:1.0;"/><polygon fill="#181818" points="149.459,209.358,151.6915,218.9505,152.4725,213.3478,158.0752,214.1289,149.459,209.358" style="stroke:#181818;stroke-width:1.0;"/></g><!--reverse link b_dir to imgs--><g id="link_b_dir_imgs"><path d="M236,215.3971 C236,234.0168 236,252.6058 236,269.2442 " fill="none" id="b_dir-backto-imgs" style="stroke:#181818;stroke-width:1.0;"/><polygon fill="#181818" points="236,209.3971,232,218.3971,236,214.3971,240,218.3971,236,209.3971" style="stroke:#181818;stroke-width:1.0;"/></g><!--reverse link c_dir to imgs--><g id="link_c_dir_imgs"><path d="M326.8774,213.8965 C314.6164,226.3784 303.573,236.9455 289,249.2969 C280.931,256.1353 271.73,263.0862 263.285,269.1653 " fill="none" id="c_dir-backto-imgs" style="stroke:#181818;stroke-width:1.0;"/><polygon fill="#181818" points="331.082,209.6162,321.9215,213.2336,327.5782,213.1831,327.6287,218.8398,331.082,209.6162" style="stroke:#181818;stroke-width:1.0;"/></g><!--link v to pc--><g id="link_v_pc"><path d="M61,83.5149 C61,87.567 61,92.1024 61,96.9408 C61,99.36 61,101.8549 61,104.403 C61,105.0401 61,105.6804 61,106.3238 C61,106.6454 61,100.9679 61,101.291 " fill="none" id="v-to-pc" style="stroke:#181818;stroke-width:1.0;"/><polygon fill="#181818" points="61,107.291,65,98.291,61,102.291,57,98.291,61,107.291" style="stroke:#181818;stroke-width:1.0;"/></g><!--SRC=[NOqn3i8m34NtdCBgmjGhCB4WWJW2IXCdDMhiAaah4EBk90LHL6_lFzi_Q68NTK0uu3Z88o1dfNOmeCkG1IBvFeEbY2QJiD8nazCcmqofC4RG2UOrRYxThQp2CMYFgQcMWa-AnI8q9-Bf3cTjUc9Sv6ZWgQ2Cay6MRrx4rjnVI-U_wFIITzlS2Bif4VjgpS-gbrAr6DgftN-_hTnj-7CtGsiBZEOD]--></g></svg>