<?xml version="1.0" encoding="us-ascii" standalone="no"?><svg xmlns="http://www.w3.org/2000/svg" xmlns:xlink="http://www.w3.org/1999/xlink" contentStyleType="text/css" height="207px" preserveAspectRatio="none" style="width:286px;height:207px;background:#FFFFFF;" version="1.1" viewBox="0 0 286 207" width="286px" zoomAndPan="magnify"><defs/><g><rect fill="#FFFFFF" height="191.5938" style="stroke:#181818;stroke-width:1.5;" width="275.5" x="5" y="10"/><path d="M118,10 L118,19.2969 L108,29.2969 L5,29.2969 " fill="none" style="stroke:#181818;stroke-width:1.5;"/><text fill="#000000" font-family="sans-serif" font-size="14" lengthAdjust="spacing" textLength="103" x="8" y="23.9951">State Machine</text><rect fill="#F1F1F1" height="40" rx="12.5" ry="12.5" style="stroke:#181818;stroke-width:0.5;" width="50" x="109" y="44.2969"/><text fill="#000000" font-family="sans-serif" font-size="14" lengthAdjust="spacing" textLength="36" x="116" y="69.1436">Calm</text><rect fill="#F1F1F1" height="40" rx="12.5" ry="12.5" style="stroke:#181818;stroke-width:0.5;" width="56" x="18" y="144.2969"/><text fill="#000000" font-family="sans-serif" font-size="14" lengthAdjust="spacing" textLength="46" x="23" y="169.1436">Happy</text><rect fill="#F1F1F1" height="40" rx="12.5" ry="12.5" style="stroke:#181818;stroke-width:0.5;" width="50" x="109" y="144.2969"/><text fill="#000000" font-family="sans-serif" font-size="14" lengthAdjust="spacing" textLength="26" x="121" y="169.1436">Sad</text><rect fill="#F1F1F1" height="40" rx="12.5" ry="12.5" style="stroke:#181818;stroke-width:0.5;" width="77" x="194.5" y="144.2969"/><text fill="#000000" font-family="sans-serif" font-size="14" lengthAdjust="spacing" textLength="67" x="199.5" y="169.1436">Confused</text><!--link Calm to Happy--><g id="link_Calm_Happy"><path d="M127.622,84.6585 C115.5199,101.8393 97.5223,122.7547 78.7744,139.9233 " fill="none" id="Calm-to-Happy" style="stroke:#181818;stroke-width:1.0;"/><polygon fill="#181818" points="74.3495,143.9755,83.6883,140.8472,78.0369,140.5987,78.2854,134.9473,74.3495,143.9755" style="stroke:#181818;stroke-width:1.0;"/></g><!--reverse link Calm to Happy--><g id="link_Calm_Happy"><path d="M104.2719,86.3901 C85.2205,103.6099 65.7015,126.1242 52.8908,144.0741 " fill="none" id="Calm-backto-Happy" style="stroke:#181818;stroke-width:1.0;"/><polygon fill="#181818" points="108.7231,82.3669,99.3641,85.4343,105.0138,85.7196,104.7285,91.3693,108.7231,82.3669" style="stroke:#181818;stroke-width:1.0;"/></g><!--link Calm to Sad--><g id="link_Calm_Sad"><path d="M145.007,84.6585 C148.333,101.8393 149.4738,120.9167 146.1428,138.0853 " fill="none" id="Calm-to-Sad" style="stroke:#181818;stroke-width:1.0;"/><polygon fill="#181818" points="145,143.9755,150.641,135.9021,145.9523,139.067,142.7874,134.3784,145,143.9755" style="stroke:#181818;stroke-width:1.0;"/></g><!--reverse link Calm to Sad--><g id="link_Calm_Sad"><path d="M122.525,90.5607 C119.384,107.7415 120.465,126.8069 123.611,143.9755 " fill="none" id="Calm-backto-Sad" style="stroke:#181818;stroke-width:1.0;"/><polygon fill="#181818" points="123.604,84.6585,118.0507,92.7924,122.7048,89.577,125.9202,94.2311,123.604,84.6585" style="stroke:#181818;stroke-width:1.0;"/></g><!--link Calm to Confused--><g id="link_Calm_Confused"><path d="M159.055,80.1809 C180.671,97.3155 205.667,120.8443 220.9,139.5724 " fill="none" id="Calm-to-Confused" style="stroke:#181818;stroke-width:1.0;"/><polygon fill="#181818" points="224.686,144.2271,222.1101,134.721,221.531,140.3482,215.9039,139.7691,224.686,144.2271" style="stroke:#181818;stroke-width:1.0;"/></g><!--reverse link Calm to Confused--><g id="link_Calm_Confused"><path d="M146.9878,89.2813 C161.2028,106.4621 182.603,126.8069 203.093,143.9755 " fill="none" id="Calm-backto-Confused" style="stroke:#181818;stroke-width:1.0;"/><polygon fill="#181818" points="143.163,84.6585,145.8184,94.1426,146.3504,88.5108,151.9821,89.0428,143.163,84.6585" style="stroke:#181818;stroke-width:1.0;"/></g><!--SRC=[HOmz3e0W38Ntdg8Nu0R6nSN5oHCqK4CJ-GdWmEqD1d1xNx_tQiKmiekbek6iayGYmOCZyLSYntWMAem7QIkU0VA76zsknvrYh3sVP4OX-El9R01Q5PLQU_73HQcElsxRAHlyQZwRVbnU]--></g></svg>