<?xml version="1.0" encoding="us-ascii" standalone="no"?><svg xmlns="http://www.w3.org/2000/svg" xmlns:xlink="http://www.w3.org/1999/xlink" contentStyleType="text/css" height="197px" preserveAspectRatio="none" style="width:342px;height:197px;background:#FFFFFF;" version="1.1" viewBox="0 0 342 197" width="342px" zoomAndPan="magnify"><defs/><g><!--cluster VisioneR--><g id="cluster_VisioneR"><path d="M127.5,9.5 L198.5,9.5 A3.75,3.75 0 0 1 201,12 L208,31.7969 L332.5,31.7969 A2.5,2.5 0 0 1 335,34.2969 L335,163 A2.5,2.5 0 0 1 332.5,165.5 L127.5,165.5 A2.5,2.5 0 0 1 125,163 L125,12 A2.5,2.5 0 0 1 127.5,9.5 " fill="none" style="stroke:#000000;stroke-width:1.5;"/><line style="stroke:#000000;stroke-width:1.5;" x1="125" x2="208" y1="31.7969" y2="31.7969"/><text fill="#000000" font-family="sans-serif" font-size="14" font-weight="bold" lengthAdjust="spacing" textLength="70" x="129" y="24.4951">VisioneR</text></g><g id="elem_uc1"><ellipse cx="230.2318" cy="64.7464" fill="#F1F1F1" rx="89.2318" ry="20.2464" style="stroke:#181818;stroke-width:0.5;"/><text fill="#000000" font-family="sans-serif" font-size="14" lengthAdjust="spacing" textLength="140" x="160.2318" y="67.593">Object Recognition</text></g><g id="elem_uc2"><ellipse cx="229.8333" cy="134.7455" fill="#F1F1F1" rx="56.3333" ry="14.7455" style="stroke:#181818;stroke-width:0.5;"/><text fill="#000000" font-family="sans-serif" font-size="14" lengthAdjust="spacing" textLength="62" x="195.8333" y="138.4931">Learning</text></g><!--entity u--><g id="elem_u"><ellipse cx="43.5" cy="14" fill="#F1F1F1" rx="8" ry="8" style="stroke:#181818;stroke-width:0.5;"/><path d="M43.5,22 L43.5,49 M30.5,30 L56.5,30 M43.5,49 L30.5,64 M43.5,49 L56.5,64 " fill="none" style="stroke:#181818;stroke-width:0.5;"/><text fill="#000000" font-family="sans-serif" font-size="14" lengthAdjust="spacing" textLength="31" x="28" y="78.4951">User</text></g><!--entity dev--><g id="elem_dev"><ellipse cx="43.5" cy="125" fill="#F1F1F1" rx="8" ry="8" style="stroke:#181818;stroke-width:0.5;"/><path d="M43.5,133 L43.5,160 M30.5,141 L56.5,141 M43.5,160 L30.5,175 M43.5,160 L56.5,175 " fill="none" style="stroke:#181818;stroke-width:0.5;"/><text fill="#000000" font-family="sans-serif" font-size="14" lengthAdjust="spacing" textLength="75" x="6" y="189.4951">Developer</text></g><!--link u to uc1--><g id="link_u_uc1"><path d="M59.2865,45.183 C79.1249,47.441 115.831,51.619 150.045,55.513 " fill="none" id="u-uc1" style="stroke:#181818;stroke-width:1.0;"/></g><!--link dev to uc2--><g id="link_dev_uc2"><path d="M81.3929,150.5008 C108.945,147.5141 146.951,143.3942 177.497,140.083 " fill="none" id="dev-uc2" style="stroke:#181818;stroke-width:1.0;"/></g><!--SRC=[LOsn3i8m34HtVyMfUmVw3On8I9LW3-uH35LI9MaNnByJsYxSP9_FxqRU2qf4Clye62nHYyKWJajCk6Gck8nvtuzSECPfCmSk8fFJb_F4rN9zOu-te6hEL9U9vdnxLY9wQlJ1VkXc1UhXFtUYIy62tw-TV4HcjEsQh4tRs7q1]--></g></svg>